<svg width="27" height="36" viewBox="0 0 27 36" fill="none" xmlns="http://www.w3.org/2000/svg">
<path d="M13.5 7.3125C12.2762 7.3125 11.0799 7.67539 10.0624 8.35528C9.04488 9.03517 8.25181 10.0015 7.7835 11.1321C7.31518 12.2628 7.19265 13.5069 7.43139 14.7071C7.67014 15.9074 8.25944 17.0099 9.12478 17.8752C9.99011 18.7406 11.0926 19.3299 12.2929 19.5686C13.4931 19.8074 14.7372 19.6848 15.8679 19.2165C16.9985 18.7482 17.9648 17.9551 18.6447 16.9376C19.3246 15.9201 19.6875 14.7238 19.6875 13.5C19.6856 11.8595 19.0331 10.2868 17.8732 9.12683C16.7132 7.96685 15.1405 7.31436 13.5 7.3125ZM13.5 18.5625C12.4987 18.5625 11.5199 18.2656 10.6874 17.7093C9.8549 17.153 9.20603 16.3624 8.82286 15.4373C8.43969 14.5123 8.33944 13.4944 8.53477 12.5124C8.73011 11.5303 9.21227 10.6283 9.92027 9.92027C10.6283 9.21227 11.5303 8.73011 12.5124 8.53478C13.4944 8.33944 14.5123 8.43969 15.4373 8.82286C16.3624 9.20603 17.153 9.8549 17.7093 10.6874C18.2656 11.52 18.5625 12.4987 18.5625 13.5C18.561 14.8422 18.0272 16.129 17.0781 17.0781C16.129 18.0272 14.8422 18.561 13.5 18.5625Z" fill="black"/>
<path d="M13.5 0C9.92083 0.0040941 6.48943 1.42773 3.95858 3.95858C1.42773 6.48944 0.00409409 9.92084 0 13.5C0 23.1913 12.576 35.332 13.1111 35.844C13.2158 35.9441 13.3551 36 13.5 36C13.6449 36 13.7842 35.9441 13.8889 35.844C14.424 35.332 27 23.1913 27 13.5C26.9959 9.92084 25.5723 6.48944 23.0414 3.95858C20.5106 1.42773 17.0792 0.0040941 13.5 0ZM13.5 34.6467C11.3593 32.4989 1.125 21.7936 1.125 13.5C1.125 10.2179 2.42879 7.07032 4.74955 4.74955C7.07032 2.42879 10.2179 1.125 13.5 1.125C16.7821 1.125 19.9297 2.42879 22.2504 4.74955C24.5712 7.07032 25.875 10.2179 25.875 13.5C25.875 21.7895 15.6407 32.4981 13.5 34.6467Z" fill="black"/>
</svg>
