<svg width="32" height="40" viewBox="0 0 32 40" fill="none" xmlns="http://www.w3.org/2000/svg">
<path fill-rule="evenodd" clip-rule="evenodd" d="M16.0001 40C15.95 40 15.9 39.9939 15.8512 39.9819C13.5651 39.4161 11.4104 38.4763 9.44723 37.1889C7.53376 35.934 5.84735 34.3796 4.43488 32.5686C3.0223 30.7576 1.92308 28.741 1.16781 26.5744C0.392869 24.3516 0 22.0255 0 19.6603V7.07743C0 6.75614 0.242505 6.48715 0.560841 6.45547C6.59528 5.85466 12.0653 3.5656 15.5683 0.174968C15.8093 -0.0583226 16.1907 -0.0583226 16.4317 0.174968C19.9347 3.5656 25.4047 5.85466 31.4392 6.45547C31.7575 6.48715 32 6.75614 32 7.07743V19.6603C32 22.0255 31.6071 24.3518 30.8322 26.5745C30.0769 28.741 28.9778 30.7577 27.5652 32.5686C26.1527 34.3796 24.4662 35.934 22.5528 37.1889C20.5896 38.4765 18.435 39.4161 16.1488 39.9819C16.1 39.9939 16.0501 40 16.0001 40ZM1.2445 7.63885V19.6603C1.2445 28.6874 7.30443 36.5073 16.0001 38.7307C24.6958 36.5072 30.7556 28.6874 30.7556 19.6603V7.63885C27.7784 7.29249 24.9663 6.56387 22.3889 5.47044C19.9033 4.41586 17.757 3.07493 15.9999 1.47977C14.243 3.07493 12.0966 4.41597 9.61099 5.47044C7.03384 6.56387 4.22164 7.29238 1.2445 7.63885Z" fill="black"/>
<path fill-rule="evenodd" clip-rule="evenodd" d="M16.0001 28.8587C14.8098 28.8587 13.6547 28.6243 12.5671 28.1623C11.5168 27.7161 10.5738 27.0775 9.76405 26.2641C8.95433 25.4507 8.31852 24.5033 7.87435 23.4484C7.41429 22.3559 7.18107 21.1956 7.18107 20C7.18107 18.8043 7.41429 17.6441 7.87435 16.5515C8.31852 15.4965 8.95433 14.5492 9.76405 13.7359C10.5738 12.9225 11.5169 12.2838 12.5671 11.8376C13.6547 11.3755 14.8098 11.1412 16.0001 11.1412C17.1903 11.1412 18.3454 11.3755 19.433 11.8376C20.4833 12.2838 21.4263 12.9225 22.2361 13.7359C23.0458 14.5492 23.6816 15.4966 24.1258 16.5515C24.5858 17.6441 24.819 18.8043 24.819 20C24.819 21.1956 24.5858 22.3559 24.1258 23.4484C23.6816 24.5035 23.0458 25.4507 22.2361 26.2641C21.4263 27.0775 20.4832 27.7161 19.433 28.1623C18.3454 28.6244 17.1903 28.8587 16.0001 28.8587ZM16.0001 12.3912C11.8235 12.3912 8.42546 15.8045 8.42546 20C8.42546 24.1954 11.8235 27.6087 16.0001 27.6087C20.1767 27.6087 23.5746 24.1954 23.5746 20C23.5746 15.8045 20.1768 12.3912 16.0001 12.3912Z" fill="black"/>
<path fill-rule="evenodd" clip-rule="evenodd" d="M14.7349 23.3439C14.5757 23.3439 14.4165 23.283 14.295 23.1609L11.7648 20.6193C11.5218 20.3752 11.5218 19.9796 11.7648 19.7354C12.0078 19.4914 12.4017 19.4914 12.6447 19.7354L14.7349 21.835L19.3553 17.1939C19.5983 16.9498 19.9922 16.9498 20.2352 17.1939C20.4781 17.4379 20.4781 17.8337 20.2352 18.0778L15.1749 23.1609C15.0535 23.283 14.8943 23.3439 14.7349 23.3439Z" fill="black"/>
</svg>
