<svg version="1.1" id="Layer_1" xmlns="http://www.w3.org/2000/svg" xmlns:xlink="http://www.w3.org/1999/xlink" x="0px" y="0px"
	 width="100%" viewBox="0 0 54 56" enable-background="new 0 0 54 56" xml:space="preserve">
<path fill="#46B8E9" opacity="1.000000" stroke="none" 
	d="
M1.000000,34.000000 
	C1.000000,30.969406 1.000000,27.938814 1.324319,24.306557 
	C2.236337,22.154186 2.788407,20.588865 3.417423,19.055103 
	C8.067986,7.715389 19.932453,1.201055 32.583790,3.024117 
	C43.605934,4.612411 52.989727,14.125050 54.056881,25.302734 
	C54.014309,35.169178 54.001854,44.555470 53.542744,54.019493 
	C49.562325,53.765709 46.028561,53.434189 42.494797,53.102665 
	C42.519875,52.630272 42.544952,52.157875 42.570030,51.685478 
	C25.282598,60.205727 8.838845,54.124306 2.567582,36.920380 
	C2.193063,35.892967 1.529215,34.971024 1.000000,34.000000 
M27.585468,13.733293 
	C21.209614,14.088646 16.523439,17.114084 13.900212,22.911867 
	C11.452446,28.321852 12.006293,33.639118 15.571828,38.432262 
	C19.946569,44.313221 27.622862,46.294125 34.271339,43.442955 
	C40.607422,40.725758 44.591183,33.969749 43.710678,27.434916 
	C42.648777,19.553841 37.155003,14.620634 27.585468,13.733293 
z"/>
<path fill="#FBFDFE" opacity="1.000000" stroke="none" 
	d="
M54.086998,24.822578 
	C52.989727,14.125050 43.605934,4.612411 32.583790,3.024117 
	C19.932453,1.201055 8.067986,7.715389 3.417423,19.055103 
	C2.788407,20.588865 2.236337,22.154186 1.324319,23.852448 
	C1.000000,16.366699 1.000000,8.733399 1.000000,1.050050 
	C18.888184,1.050050 36.776531,1.050050 55.000000,1.050050 
	C55.000000,8.684293 55.000000,16.373455 54.772884,24.481110 
	C54.545769,24.899605 54.086998,24.822578 54.086998,24.822578 
z"/>
<path fill="#F9FDFE" opacity="1.000000" stroke="none" 
	d="
M1.000000,34.468735 
	C1.529215,34.971024 2.193063,35.892967 2.567582,36.920380 
	C8.838845,54.124306 25.282598,60.205727 42.570030,51.685478 
	C42.544952,52.157875 42.519875,52.630272 42.494797,53.102665 
	C46.028561,53.434189 49.562325,53.765709 53.793442,54.067871 
	C54.660534,54.025669 54.830265,54.012836 55.000000,54.000000 
	C55.000000,54.994495 55.000000,55.988995 55.000000,56.987617 
	C37.104557,56.991745 19.209106,56.991745 1.000000,56.991745 
	C1.000000,49.648796 1.000000,42.293137 1.000000,34.468735 
z"/>
<path fill="#5DC0EC" opacity="1.000000" stroke="none" 
	d="
M55.000000,53.531342 
	C54.830265,54.012836 54.660534,54.025669 54.240097,53.990131 
	C54.001854,44.555470 54.014309,35.169178 54.056881,25.302734 
	C54.086998,24.822578 54.545769,24.899605 54.772884,24.949802 
	C55.000000,34.354229 55.000000,43.708458 55.000000,53.531342 
z"/>
<path fill="#F5FBFE" opacity="1.000000" stroke="none" 
	d="
M28.018366,13.732908 
	C37.155003,14.620634 42.648777,19.553841 43.710678,27.434916 
	C44.591183,33.969749 40.607422,40.725758 34.271339,43.442955 
	C27.622862,46.294125 19.946569,44.313221 15.571828,38.432262 
	C12.006293,33.639118 11.452446,28.321852 13.900212,22.911867 
	C16.523439,17.114084 21.209614,14.088646 28.018366,13.732908 
M17.478420,28.719774 
	C17.584841,34.212460 20.255398,37.815266 25.520187,39.362041 
	C29.820679,40.625507 33.430641,39.181667 36.246475,35.927853 
	C39.276752,32.426231 39.660408,28.368917 37.528385,24.313658 
	C35.276066,20.029591 31.463076,18.219301 26.712593,18.849352 
	C21.444813,19.548010 18.532043,22.838358 17.478420,28.719774 
z"/>
<path fill="#4DB8E5" opacity="1.000000" stroke="none" 
	d="
M17.525585,28.345665 
	C18.532043,22.838358 21.444813,19.548010 26.712593,18.849352 
	C31.463076,18.219301 35.276066,20.029591 37.528385,24.313658 
	C39.660408,28.368917 39.276752,32.426231 36.246475,35.927853 
	C33.430641,39.181667 29.820679,40.625507 25.520187,39.362041 
	C20.255398,37.815266 17.584841,34.212460 17.525585,28.345665 
M34.993610,26.473677 
	C31.210440,21.088329 25.304947,20.084740 22.603096,24.870392 
	C21.333845,27.118549 21.103371,31.429712 22.469412,33.278633 
	C23.867556,35.171001 27.999542,36.277096 30.567343,35.789978 
	C34.682190,35.009392 35.996117,31.351887 34.993610,26.473677 
z"/>
<path fill="#060A0C" opacity="1.000000" stroke="none" 
	d="
M35.068680,26.833988 
	C35.996117,31.351887 34.682190,35.009392 30.567343,35.789978 
	C27.999542,36.277096 23.867556,35.171001 22.469412,33.278633 
	C21.103371,31.429712 21.333845,27.118549 22.603096,24.870392 
	C25.304947,20.084740 31.210440,21.088329 35.068680,26.833988 
z"/>
</svg>