<svg width="17" height="17" viewBox="0 0 17 17" fill="#42b7e9" stroke-width="0.5" stroke="#42b7e9" xmlns="http://www.w3.org/2000/svg">
<path d="M16.5539 13.1149L13.1131 10.8201C12.6764 10.5312 12.0911 10.6263 11.7683 11.0385L10.766 12.3273C10.6372 12.4972 10.403 12.5464 10.2167 12.4429L10.026 12.3378C9.39399 11.9933 8.60759 11.5644 7.02314 9.97923C5.43869 8.3941 5.00894 7.60705 4.66444 6.97614L4.5599 6.78547C4.45496 6.59915 4.50329 6.36399 4.6732 6.23414L5.96103 5.23208C6.37308 4.9092 6.46826 4.32401 6.17974 3.88719L3.88508 0.446085C3.58938 0.00126359 2.99613 -0.132269 2.53836 0.14293L1.09951 1.00731C0.647421 1.27311 0.315738 1.70359 0.174014 2.20854C-0.34411 4.09652 0.0456698 7.35489 4.8452 12.1553C8.66313 15.9732 11.5054 17 13.459 17C13.9086 17.0019 14.3564 16.9434 14.7905 16.826C15.2955 16.6844 15.726 16.3527 15.9916 15.9004L16.8568 14.4624C17.1324 14.0045 16.9989 13.4108 16.5539 13.1149ZM16.3686 14.1717L15.5054 15.6106C15.3147 15.937 15.0051 16.177 14.6414 16.2804C12.8986 16.7589 9.85378 16.3625 5.24604 11.7545C0.638292 7.14639 0.242004 4.10163 0.72049 2.35844C0.823936 1.99429 1.06422 1.68423 1.39103 1.4932L2.82987 0.629949C3.0285 0.510427 3.28598 0.568362 3.41429 0.761391L5.70699 4.2022C5.83228 4.39167 5.79112 4.64562 5.61238 4.78583L4.32426 5.78789C3.93225 6.08766 3.82031 6.63006 4.06166 7.06053L4.16394 7.24639C4.526 7.91047 4.97614 8.7366 6.61951 10.3798C8.26289 12.023 9.0887 12.4732 9.75243 12.8353L9.93854 12.9378C10.369 13.1792 10.9113 13.0672 11.2111 12.6752L12.2131 11.387C12.3533 11.2083 12.6071 11.1672 12.7967 11.2924L16.2372 13.5872C16.4304 13.7154 16.4883 13.9731 16.3686 14.1717Z" fill="#42b7e9"/>
<path d="M9.63282 2.8344C12.2914 2.83736 14.4458 4.99197 14.4488 7.65071C14.4488 7.80718 14.5756 7.93401 14.7321 7.93401C14.8885 7.93401 15.0153 7.80718 15.0153 7.65071C15.0121 4.67916 12.6042 2.27105 9.63282 2.2678C9.47635 2.2678 9.34953 2.39463 9.34953 2.5511C9.34953 2.70757 9.47635 2.8344 9.63282 2.8344Z" fill="white"/>
<path d="M9.63282 4.53427C11.353 4.53629 12.747 5.93039 12.749 7.65071C12.749 7.80718 12.8759 7.93401 13.0323 7.93401C13.1888 7.93401 13.3156 7.80718 13.3156 7.65071C13.3132 5.61757 11.6658 3.96999 9.63282 3.96767C9.47635 3.96767 9.34953 4.09449 9.34953 4.25097C9.34953 4.40744 9.47635 4.53427 9.63282 4.53427Z" fill="white"/>
<path d="M9.63282 6.23414C10.4147 6.23507 11.0483 6.86873 11.0493 7.65071C11.0493 7.80718 11.1761 7.93401 11.3326 7.93401C11.489 7.93401 11.6158 7.80718 11.6158 7.65071C11.6146 6.55595 10.7275 5.66877 9.63282 5.66754C9.47635 5.66754 9.34953 5.79436 9.34953 5.95084C9.34953 6.10731 9.47635 6.23414 9.63282 6.23414Z" fill="white"/>
</svg>
