<svg width="39" height="39" viewBox="0 0 39 39" fill="none" xmlns="http://www.w3.org/2000/svg">
<path d="M19.9554 9.23806C19.8714 9.18955 19.7761 9.16402 19.6791 9.16402C19.582 9.16402 19.4867 9.18955 19.4027 9.23806L10.9754 14.1036C10.8914 14.1521 10.8217 14.2218 10.7731 14.3058C10.7246 14.3898 10.6991 14.4851 10.6991 14.5821V24.3131C10.6991 24.4101 10.7246 24.5054 10.7731 24.5894C10.8217 24.6734 10.8914 24.7432 10.9754 24.7917L19.4027 29.6573C19.4867 29.7058 19.582 29.7313 19.6791 29.7313C19.7761 29.7313 19.8714 29.7058 19.9554 29.6573L28.3828 24.7917C28.4668 24.7432 28.5365 24.6734 28.585 24.5894C28.6335 24.5054 28.6591 24.4101 28.6591 24.3131V14.5821C28.6591 14.4851 28.6335 14.3898 28.585 14.3058C28.5365 14.2218 28.4668 14.1521 28.3828 14.1036L19.9554 9.23806ZM19.6791 10.3548L27.0011 14.5821L19.6791 18.8095L12.357 14.5821L19.6791 10.3548ZM11.8044 15.5394L19.1264 19.7667V28.2219L11.8044 23.9945V15.5394ZM20.2317 28.2215V19.7663L27.5538 15.5389V23.9941L20.2317 28.2215ZM1.23403 21.6886C1.24261 21.7607 1.23689 21.8338 1.21721 21.9037C1.19752 21.9736 1.16425 22.039 1.1193 22.096C1.07434 22.153 1.01859 22.2007 0.955225 22.2361C0.891858 22.2716 0.822121 22.2942 0.75 22.3027C0.728202 22.3054 0.706269 22.3067 0.684316 22.3067C0.549117 22.3065 0.418676 22.2568 0.317679 22.1669C0.216683 22.077 0.152139 21.9532 0.136263 21.819C0.045452 21.0494 -4.74543e-05 20.2751 3.71391e-08 19.5001C0.000791691 16.0658 0.908363 12.6926 2.63095 9.72153C4.35354 6.75046 6.83007 4.28689 9.81014 2.5799C12.7902 0.872918 16.1682 -0.0169598 19.6024 0.000244816C23.0367 0.0174494 26.4056 0.941126 29.3684 2.67788C31.7695 4.09185 33.8418 6.00114 35.4474 8.27862L35.4029 1.91194C35.4024 1.83937 35.4162 1.7674 35.4435 1.70016C35.4708 1.63291 35.511 1.5717 35.562 1.52002C35.6649 1.41564 35.805 1.35641 35.9516 1.35536C36.0982 1.35432 36.2392 1.41154 36.3435 1.51443C36.4479 1.61733 36.5071 1.75748 36.5082 1.90405L36.5661 10.198C36.5666 10.2709 36.5526 10.3431 36.5251 10.4106C36.4976 10.4781 36.4569 10.5395 36.4056 10.5912C36.3542 10.643 36.2931 10.684 36.2258 10.712C36.1585 10.7401 36.0863 10.7545 36.0134 10.7545C36.0081 10.7545 36.0028 10.7545 35.9976 10.7545L28.2928 10.5322C28.22 10.5306 28.1482 10.5146 28.0815 10.4851C28.0149 10.4556 27.9547 10.4133 27.9045 10.3605C27.8543 10.3076 27.8151 10.2454 27.789 10.1774C27.763 10.1093 27.7506 10.0368 27.7527 9.96395C27.7548 9.89111 27.7713 9.81941 27.8012 9.75296C27.8311 9.68651 27.8738 9.62663 27.9269 9.57676C27.9801 9.5269 28.0426 9.48804 28.1108 9.46241C28.179 9.43679 28.2516 9.4249 28.3244 9.42745L35.0192 9.62056C33.3519 7.01561 31.0574 4.87093 28.3459 3.38319C25.6344 1.89546 22.5928 1.11229 19.5 1.1055C9.35708 1.1055 1.10526 9.35727 1.10526 19.5001C1.1053 20.2315 1.1483 20.9623 1.23403 21.6886ZM39 19.5001C38.9988 22.8492 38.1354 26.1417 36.4928 29.0603C34.8502 31.979 32.4839 34.4256 29.6216 36.1645C26.7593 37.9034 23.4974 38.8761 20.1502 38.9889C16.803 39.1017 13.4831 38.3508 10.5102 36.8085C8.24824 35.6265 6.23793 34.0156 4.59134 32.0656L4.34747 37.7448C4.34137 37.887 4.28059 38.0214 4.17781 38.12C4.07503 38.2185 3.93818 38.2736 3.79579 38.2737C3.78789 38.2737 3.78 38.2737 3.77163 38.2732C3.6252 38.2669 3.48727 38.2027 3.38817 38.0947C3.28908 37.9867 3.23695 37.8438 3.24324 37.6973L3.55113 30.5219C3.55689 30.379 3.61798 30.2439 3.7215 30.1452C3.82502 30.0465 3.96286 29.9919 4.10589 29.993L12.0395 30.0317C12.112 30.0318 12.1839 30.0463 12.2509 30.0742C12.3178 30.1021 12.3787 30.143 12.4299 30.1944C12.4811 30.2459 12.5216 30.3069 12.5492 30.374C12.5768 30.4411 12.591 30.513 12.5908 30.5856C12.5906 30.6582 12.5762 30.73 12.5482 30.797C12.5203 30.8639 12.4795 30.9248 12.428 30.976C12.3766 31.0272 12.3156 31.0677 12.2484 31.0953C12.1813 31.123 12.1094 31.1371 12.0369 31.1369H12.0342L5.22774 31.104C6.95603 33.2214 9.13272 34.9288 11.6008 36.1031C14.0689 37.2774 16.7668 37.8894 19.5 37.8948C29.6429 37.8948 37.8947 29.643 37.8947 19.5001C37.8947 19.3536 37.953 19.213 38.0566 19.1094C38.1602 19.0057 38.3008 18.9475 38.4474 18.9475C38.5939 18.9475 38.7345 19.0057 38.8381 19.1094C38.9418 19.213 39 19.3536 39 19.5001Z" fill="black"/>
</svg>
