<svg width="23" height="23" viewBox="0 0 23 23" fill="none" xmlns="http://www.w3.org/2000/svg">
<g clip-path="url(#clip0_36_118)">
<path d="M5.7501 7.66667C5.10371 7.66625 4.46772 7.8293 3.90126 8.14063C3.3348 8.45197 2.85627 8.90149 2.51016 9.4474C2.16405 9.99331 1.9616 10.6179 1.92164 11.263C1.88168 11.9082 2.00551 12.5529 2.2816 13.1374C2.5577 13.7218 2.97711 14.227 3.50082 14.6058C4.02453 14.9847 4.63553 15.225 5.27703 15.3043C5.91852 15.3837 6.56966 15.2995 7.1699 15.0597C7.77015 14.8199 8.3 14.4322 8.7102 13.9326L13.866 17.37C13.4045 18.2391 13.2947 19.2523 13.5592 20.2001C13.8238 21.148 14.4425 21.9578 15.2875 22.4623C16.1324 22.9667 17.1389 23.1271 18.0987 22.9103C19.0586 22.6935 19.8984 22.116 20.4445 21.2974C20.9906 20.4788 21.2011 19.4816 21.0326 18.5121C20.8641 17.5426 20.3294 16.6749 19.5392 16.0886C18.7489 15.5022 17.7635 15.242 16.7868 15.3618C15.81 15.4816 14.9167 15.9722 14.2915 16.7321L9.13493 13.2948C9.4294 12.7424 9.58343 12.126 9.58343 11.5C9.58343 10.874 9.4294 10.2576 9.13493 9.70523L14.2915 6.26788C14.9178 7.02952 15.8129 7.52129 16.7917 7.64147C17.7704 7.76165 18.7579 7.50104 19.5498 6.91355C20.3418 6.32606 20.8777 5.45665 21.0466 4.48514C21.2155 3.51363 21.0045 2.51437 20.4573 1.69406C19.9101 0.87374 19.0685 0.295133 18.1066 0.0779231C17.1448 -0.139287 16.1362 0.0215179 15.2896 0.527076C14.443 1.03263 13.8231 1.84426 13.5581 2.79407C13.2931 3.74389 13.4034 4.75921 13.866 5.63002L8.7102 9.06737C8.35116 8.62944 7.89941 8.27664 7.38753 8.03442C6.87565 7.79221 6.31639 7.6666 5.7501 7.66667ZM17.2501 16.1C17.8566 16.1 18.4495 16.2799 18.9538 16.6168C19.4582 16.9538 19.8512 17.4327 20.0833 17.9931C20.3154 18.5535 20.3762 19.1701 20.2578 19.7649C20.1395 20.3598 19.8474 20.9062 19.4186 21.3351C18.9897 21.764 18.4432 22.0561 17.8484 22.1744C17.2535 22.2927 16.6369 22.232 16.0765 21.9999C15.5162 21.7678 15.0372 21.3747 14.7003 20.8704C14.3633 20.3661 14.1834 19.7732 14.1834 19.1667C14.1843 18.3536 14.5077 17.5741 15.0826 16.9992C15.6576 16.4243 16.437 16.1009 17.2501 16.1ZM17.2501 0.766667C17.8566 0.766667 18.4495 0.946523 18.9538 1.28349C19.4582 1.62046 19.8512 2.09941 20.0833 2.65977C20.3154 3.22013 20.3762 3.83674 20.2578 4.43161C20.1395 5.02649 19.8474 5.57291 19.4186 6.00179C18.9897 6.43068 18.4432 6.72275 17.8484 6.84108C17.2535 6.9594 16.6369 6.89867 16.0765 6.66656C15.5162 6.43446 15.0372 6.04139 14.7003 5.53708C14.3633 5.03277 14.1834 4.43986 14.1834 3.83333C14.1843 3.02028 14.5077 2.24079 15.0826 1.66588C15.6576 1.09097 16.437 0.76758 17.2501 0.766667ZM5.7501 14.5667C5.14357 14.5667 4.55066 14.3868 4.04635 14.0498C3.54204 13.7129 3.14897 13.2339 2.91687 12.6736C2.68476 12.1132 2.62403 11.4966 2.74235 10.9017C2.86068 10.3068 3.15275 9.76042 3.58164 9.33154C4.01052 8.90266 4.55694 8.61059 5.15182 8.49226C5.74669 8.37393 6.3633 8.43466 6.92366 8.66677C7.48402 8.89888 7.96297 9.29194 8.29994 9.79625C8.63691 10.3006 8.81676 10.8935 8.81676 11.5C8.81585 12.3131 8.49246 13.0925 7.91755 13.6675C7.34263 14.2424 6.56315 14.5658 5.7501 14.5667Z" fill="black"/>
</g>
<defs>
<clipPath id="clip0_36_118">
<rect width="23" height="23" fill="white"/>
</clipPath>
</defs>
</svg>
